<svg width="172" height="172" viewBox="0 0 172 172" fill="none" xmlns="http://www.w3.org/2000/svg">
<rect width="172" height="172" fill="#E5E5E5"/>
<g id="06. Portfolio" clip-path="url(#clip0)">
<rect width="1920" height="3877" transform="translate(-388 -3522)" fill="white"/>
<g id="BACKGROUND">
<rect id="BG" x="-388" y="-903" width="1920" height="1258" fill="#141314"/>
<g id="Vector 3" opacity="0.14" filter="url(#filter0_f)">
<path d="M-579.171 28.837C-553.151 -111.784 -569.368 -144.697 -512.209 -111.687C-501.984 -113.354 -254.26 -159.813 -215.082 -174.191C-166.109 -192.164 -133.275 -86.605 98.2216 -7.1142C329.718 72.3766 85.7043 94.4126 286.132 283.684C486.561 472.956 381.938 468.256 142.973 449.335C-95.9912 430.414 -103.51 562.255 -515.787 425.338C-928.065 288.421 -611.697 204.614 -579.171 28.837Z" fill="url(#paint0_linear)"/>
</g>
</g>
<g id="//RODAP&#195;&#137;">
<g id="selo_Positivo 2">
<path id="Vector" d="M90.0296 81.6557L105.493 66.2161V120.239C105.493 126.796 103.367 131.896 99.1141 135.541C94.8612 139.186 89.2328 141.013 82.229 141.024C79.5994 141.023 76.9937 140.524 74.5496 139.554C72.1454 138.621 69.8985 137.325 67.8876 135.711C66.0014 134.211 64.4104 132.373 63.196 130.292C62.076 128.413 61.4742 126.27 61.4517 124.082C61.4254 122.548 61.7341 121.027 62.3562 119.625C62.8941 118.383 63.655 117.25 64.601 116.282C65.4706 115.394 66.5046 114.684 67.6453 114.19C68.7113 113.717 69.8627 113.467 71.0288 113.456C72.1978 113.445 73.3558 113.681 74.4273 114.149C75.4987 114.616 76.4594 115.305 77.2467 116.169C78.0788 116.997 78.7373 117.982 79.1838 119.068C79.6303 120.154 79.8557 121.318 79.8469 122.492C79.9475 123.865 79.6503 125.239 78.9909 126.448C78.4504 127.246 77.8069 127.968 77.0771 128.596C76.3993 129.156 75.7574 129.757 75.1552 130.397C74.5281 131.242 74.24 132.29 74.3477 133.336C74.3441 134.299 74.577 135.247 75.026 136.098C75.474 136.961 76.0856 137.729 76.8268 138.359C77.5885 139.004 78.4505 139.519 79.3785 139.885C80.291 140.258 81.2674 140.45 82.2532 140.451C83.3198 140.517 84.388 140.349 85.3827 139.959C86.3774 139.568 87.2745 138.964 88.0108 138.19C89.3782 136.688 90.0592 134.354 90.0538 131.188L90.0296 81.6557Z" fill="white"/>
<path id="Vector_2" d="M110.436 47.8532C110.461 49.3871 110.152 50.9081 109.531 52.3107C108.99 53.5499 108.223 54.6779 107.27 55.6377C106.399 56.5235 105.365 57.2336 104.226 57.7291C103.16 58.2022 102.008 58.4523 100.842 58.4639C99.6742 58.474 98.5169 58.2384 97.4458 57.7724C96.3746 57.3063 95.4134 56.6203 94.6244 55.7588C93.7939 54.9279 93.1365 53.9405 92.6901 52.8538C92.2438 51.7671 92.0175 50.6027 92.0242 49.4279C91.9216 48.0549 92.2159 46.6814 92.8721 45.4711C93.4131 44.6742 94.0597 43.9544 94.794 43.3312C95.4676 42.7671 96.1067 42.1631 96.7078 41.5224C97.3522 40.6848 97.6577 39.6355 97.5638 38.583C97.5626 37.6214 97.3299 36.6741 96.8855 35.8213C96.4344 34.9578 95.8201 34.1899 95.0766 33.5603C94.3178 32.916 93.4586 32.4004 92.533 32.0341C91.6113 31.6662 90.6264 31.4824 89.634 31.4931C88.5663 31.427 87.497 31.5952 86.5011 31.9857C85.5051 32.3763 84.6066 32.9798 83.8684 33.7541C82.5117 35.2561 81.8334 37.5898 81.8334 40.7552V89.5532L66.3857 104.977V51.6809C66.3857 45.1346 68.5149 40.0338 72.7732 36.3785C77.0314 32.7232 82.6517 30.8982 89.634 30.9036C92.2607 30.9076 94.8632 31.4061 97.3054 32.3732C99.7121 33.3061 101.962 34.6024 103.975 36.217C105.86 37.7187 107.45 39.5557 108.667 41.6354C109.797 43.515 110.407 45.6606 110.436 47.8532Z" fill="white"/>
<g id="circulo">
<path id="Vector_3" d="M37.6382 145.255L36.1685 145.901C35.9382 144.712 35.3291 143.63 34.4323 142.816C33.2615 141.75 32.3893 141.718 31.8806 142.283C30.4029 143.898 35.8455 146.902 33.3018 149.696C32.1955 150.916 30.2898 151.061 28.2307 149.188C27.3398 148.401 26.6831 147.384 26.333 146.248L27.7623 145.562C28.0499 146.507 28.5786 147.362 29.2966 148.041C30.4594 149.091 31.3396 149.075 31.8564 148.501C33.3099 146.886 27.9077 143.89 30.419 141.129C31.5092 139.917 33.431 139.78 35.4902 141.654C36.5802 142.587 37.3346 143.852 37.6382 145.255Z" fill="white"/>
<path id="Vector_4" d="M25.2026 134.394L28.4973 138.262L30.9198 137.454L32.1795 138.94L21.4962 142.122L20.293 140.709L25.0492 130.615L26.3332 132.117L25.2026 134.394ZM24.4759 135.831L22.344 140.176L26.9549 138.738L24.4759 135.831Z" fill="white"/>
<path id="Vector_5" d="M20.9953 124.139L19.5983 127.49C19.679 127.595 19.7517 127.7 19.8244 127.813L21.0518 129.751L23.5551 128.136L24.5645 129.751L15.9968 135.21L13.7277 131.689C12.2903 129.436 12.5487 127.304 14.4464 126.093C15.0151 125.689 15.6993 125.481 16.3965 125.498C17.0937 125.516 17.7665 125.758 18.3143 126.19L19.8728 122.427L20.9953 124.139ZM15.1408 130.898L16.3279 132.763L19.7436 130.583L18.5566 128.725C17.6683 127.328 16.5701 127.013 15.4961 127.7C14.4221 128.386 14.2445 129.509 15.1328 130.898H15.1408Z" fill="white"/>
<path id="Vector_6" d="M14.277 115.975L16.3927 120.594L18.9525 120.529L19.76 122.297L8.60829 122.362L7.80078 120.674L15.1734 112.244L15.9809 114.045L14.277 115.975ZM13.195 117.154L9.96491 120.747L14.81 120.634L13.195 117.154Z" fill="white"/>
<path id="Vector_7" d="M2.64062 105.517L12.4034 102.691L12.9283 104.508L8.74541 105.719L10.207 110.766L14.3899 109.555L14.9148 111.364L5.15199 114.198L4.6271 112.381L8.66466 111.218L7.20306 106.163L3.1655 107.334L2.64062 105.517Z" fill="white"/>
<path id="Vector_8" d="M10.2151 98.1693L8.81002 97.2326C9.13081 96.9825 9.38488 96.6571 9.54969 96.2852C9.7145 95.9133 9.78496 95.5064 9.75481 95.1008C9.64176 94.0672 8.94729 93.5988 7.71987 93.728L2.49527 94.2852L2.8748 97.8867L1.30016 98.0563L0.71875 92.5814L7.4211 91.8627C9.80326 91.6043 11.1033 92.6702 11.3375 94.8909C11.4202 95.487 11.3617 96.0943 11.1667 96.6638C10.9718 97.2332 10.6458 97.7489 10.2151 98.1693Z" fill="white"/>
<path id="Vector_9" d="M8.34211 82.7295L8.29366 87.8087L10.6435 88.8343V90.7804L0.525391 86.113V84.2557L10.7323 79.7578V81.7362L8.34211 82.7295ZM6.85629 83.3351L2.42305 85.2166L6.84821 87.1546L6.85629 83.3351Z" fill="white"/>
<path id="Vector_10" d="M5.75754 78.9423C4.70264 78.7355 3.7315 78.224 2.96418 77.4711C2.19687 76.7182 1.66704 75.757 1.44022 74.7062C1.21339 73.6554 1.29952 72.5612 1.68794 71.5589C2.07637 70.5565 2.75006 69.69 3.62571 69.0664L4.58664 70.4311C4.16085 70.7149 3.80075 71.0866 3.53054 71.5212C3.26033 71.9557 3.08628 72.4431 3.02008 72.9505C2.94209 73.5395 3.01233 74.1385 3.22444 74.6935C3.43655 75.2484 3.78381 75.7416 4.23474 76.1283C4.68568 76.5151 5.22602 76.7831 5.80676 76.9082C6.38751 77.0334 6.99029 77.0115 7.56047 76.8447C8.13064 76.6779 8.65017 76.3715 9.07194 75.9531C9.49371 75.5347 9.80439 75.0177 9.97579 74.4489C10.1472 73.8801 10.1739 73.2775 10.0535 72.6958C9.93314 72.114 9.66945 71.5715 9.28636 71.1175L10.6107 70.0758C11.2752 70.9228 11.6768 71.946 11.766 73.0188C11.8552 74.0917 11.628 75.1671 11.1125 76.1122C10.597 77.0573 9.81578 77.8306 8.86549 78.3364C7.9152 78.8423 6.83749 79.0585 5.76561 78.9584L5.75754 78.9423Z" fill="white"/>
<path id="Vector_11" d="M7.34873 68.3238C6.28484 68.0622 5.32371 67.4879 4.58927 66.675C3.85483 65.862 3.38077 64.8477 3.22822 63.7628C3.07567 62.6779 3.25163 61.5722 3.73341 60.5882C4.21518 59.6043 4.98068 58.7872 5.93118 58.2424C6.88169 57.6976 7.97361 57.45 9.06614 57.5316C10.1587 57.6132 11.2017 58.0202 12.0607 58.7001C12.9198 59.3801 13.5554 60.3018 13.8857 61.3464C14.216 62.391 14.2258 63.5106 13.9138 64.5608C13.7473 65.2492 13.4422 65.8965 13.0171 66.463C12.592 67.0295 12.0558 67.5033 11.4413 67.8555C10.8268 68.2078 10.147 68.4309 9.44327 68.5114C8.73959 68.592 8.02689 68.5281 7.34873 68.3238ZM9.91661 59.6511C9.23958 59.4537 8.51923 59.4612 7.84649 59.6728C7.17374 59.8843 6.57875 60.2905 6.13661 60.8399C5.69447 61.3893 5.42501 62.0574 5.36223 62.7598C5.29945 63.4623 5.44618 64.1676 5.78388 64.7867C6.12158 65.4058 6.63512 65.911 7.25969 66.2385C7.88426 66.566 8.59186 66.7012 9.29317 66.6269C9.99448 66.5527 10.6581 66.2723 11.2002 65.8212C11.7423 65.3701 12.1386 64.7686 12.3391 64.0924C12.488 63.6421 12.5428 63.166 12.5002 62.6937C12.4575 62.2213 12.3183 61.7627 12.0912 61.3463C11.8641 60.93 11.5539 60.5647 11.1798 60.2731C10.8058 59.9815 10.3758 59.7698 9.91661 59.6511Z" fill="white"/>
<path id="Vector_12" d="M17.3371 48.4505C18.9521 49.1853 19.259 50.873 18.1446 53.2229L15.9966 57.8014L6.79102 53.4893L8.8098 49.1772C9.84341 46.9646 11.3292 46.2137 12.7908 46.9C13.2139 47.0788 13.5774 47.3741 13.8391 47.7515C14.1007 48.1289 14.2497 48.573 14.2686 49.0319C14.6367 48.599 15.1419 48.3052 15.7002 48.1995C16.2585 48.0937 16.8362 48.1823 17.3371 48.4505ZM8.939 52.4073L11.4746 53.5943L12.6132 51.1718C13.1623 49.9847 13.0573 49.1126 12.2175 48.7492C11.3777 48.3859 10.6025 48.8219 10.0695 50.0009L8.939 52.4073ZM16.36 50.0897C15.4395 49.6617 14.745 50.1705 14.099 51.4544L12.807 54.2161L15.4637 55.4597L16.7557 52.698C17.3613 51.3817 17.2806 50.4935 16.36 50.0655V50.0897Z" fill="white"/>
<path id="Vector_13" d="M19.2674 42.968C19.0151 42.7923 18.8205 42.5459 18.7079 42.2598C18.5953 41.9737 18.5698 41.6608 18.6347 41.3602C18.6996 41.0597 18.8519 40.7851 19.0725 40.5709C19.293 40.3568 19.572 40.2127 19.8743 40.1567C20.1766 40.1007 20.4887 40.1354 20.7714 40.2563C21.054 40.3773 21.2945 40.5792 21.4627 40.8365C21.6309 41.0939 21.7192 41.3952 21.7165 41.7027C21.7139 42.0101 21.6203 42.3099 21.4477 42.5643C21.3326 42.7358 21.1844 42.8826 21.0118 42.996C20.8392 43.1095 20.6456 43.1873 20.4425 43.2249C20.2394 43.2626 20.0308 43.2592 19.829 43.2151C19.6272 43.171 19.4363 43.087 19.2674 42.968Z" fill="white"/>
<path id="Vector_14" d="M26.5265 37.8401L25.8805 36.3704C27.0662 36.133 28.1445 35.5217 28.9571 34.6262C30.0149 33.4553 30.0391 32.5832 29.482 32.0744C27.8669 30.6048 24.8711 36.0474 22.069 33.5199C20.8577 32.4217 20.6962 30.5159 22.5616 28.4487C23.3455 27.5529 24.3632 26.893 25.5009 26.543L26.1873 27.9642C25.2449 28.2577 24.3939 28.7888 23.7163 29.5065C22.6666 30.6694 22.6908 31.5576 23.2641 32.0744C24.8791 33.5199 27.8589 28.1095 30.6286 30.6048C31.8399 31.6949 31.9852 33.6087 30.1199 35.684C29.1871 36.7728 27.9261 37.5294 26.5265 37.8401Z" fill="white"/>
<path id="Vector_15" d="M37.3553 25.3557L33.5035 28.6665L34.2706 31.089L32.7928 32.3568L29.6436 21.6654L31.0567 20.4541L41.1829 25.1942L39.689 26.4781L37.3553 25.3557ZM35.9179 24.637L31.5735 22.5133L33.0189 27.1241L35.9179 24.637Z" fill="white"/>
<path id="Vector_16" d="M47.6431 21.1002L44.2839 19.7194C44.1809 19.8013 44.0731 19.8768 43.9609 19.9455L41.9906 21.181L43.6056 23.6762L41.9906 24.6937L36.5156 16.1502L40.0364 13.8892C42.2813 12.4437 44.4131 12.7021 45.6244 14.5917C46.0302 15.1588 46.2417 15.8419 46.2271 16.5391C46.2126 17.2363 45.9728 17.9101 45.5436 18.4597L49.3147 20.0101L47.6431 21.1002ZM40.86 15.27L39.0028 16.4651L41.1911 19.8728L43.0484 18.6777C44.4454 17.7894 44.7603 16.6912 44.0659 15.6172C43.3714 14.5432 42.2167 14.3817 40.8197 15.27H40.86Z" fill="white"/>
<path id="Vector_17" d="M55.7183 14.3901L51.0993 16.5138L51.172 19.0655L49.4116 19.8731L49.3066 8.72939L50.9943 7.92188L59.4167 15.1895L57.624 15.997L55.7183 14.3901ZM54.5312 13.2999L50.9297 10.0699L51.0589 14.9149L54.5312 13.2999Z" fill="white"/>
<path id="Vector_18" d="M66.1353 2.69702L69.002 12.4518L67.1931 12.9847L65.9657 8.80989L60.9188 10.2876L62.1462 14.4705L60.3374 15.0035L57.4707 5.24876L59.2795 4.7158L60.4666 8.75336L65.5054 7.26754L64.3265 3.22998L66.1353 2.69702Z" fill="white"/>
<path id="Vector_19" d="M73.5479 10.2472L74.4765 8.85021C74.7279 9.16859 75.054 9.41995 75.4259 9.58195C75.7978 9.74396 76.204 9.81159 76.6083 9.77884C77.65 9.66579 78.1184 8.97133 77.9811 7.74391L77.3997 2.51931L73.8063 2.91499L73.6367 1.29997L79.1035 0.694336L79.8465 7.39669C80.1049 9.77885 79.039 11.0789 76.8264 11.3212C76.234 11.4119 75.6285 11.362 75.059 11.1754C74.4894 10.9889 73.9717 10.6709 73.5479 10.2472Z" fill="white"/>
<path id="Vector_20" d="M88.964 8.33374H83.8766L82.8592 10.6836H80.9131L85.5482 0.549316H87.4055L91.9356 10.7401H89.9653L88.964 8.33374ZM88.3422 6.84791L86.4526 2.42275L84.5227 6.85599L88.3422 6.84791Z" fill="white"/>
<path id="Vector_21" d="M92.7505 5.73303C92.954 4.67772 93.4624 3.70519 94.2127 2.93565C94.9629 2.16611 95.9223 1.63329 96.9721 1.40306C98.0219 1.17282 99.1161 1.25525 100.12 1.64017C101.123 2.0251 101.992 2.69563 102.618 3.56889L101.246 4.53791C100.964 4.11105 100.592 3.75058 100.157 3.48147C99.7222 3.21237 99.2339 3.04106 98.7261 2.97941C97.788 2.84663 96.8357 3.09193 96.0785 3.66133C95.3213 4.23074 94.8213 5.07761 94.6885 6.01565C94.5557 6.9537 94.801 7.90607 95.3704 8.66326C95.9398 9.42045 96.7867 9.92043 97.7247 10.0532C98.2313 10.1334 98.7492 10.1027 99.2427 9.96331C99.7362 9.8239 100.194 9.57906 100.583 9.2457L101.625 10.57C100.779 11.2384 99.7552 11.6434 98.6809 11.7345C97.6066 11.8257 96.5292 11.599 95.5827 11.0827C94.6362 10.5665 93.8623 9.78333 93.3573 8.83073C92.8523 7.87813 92.6385 6.7981 92.7424 5.72495L92.7505 5.73303Z" fill="white"/>
<path id="Vector_22" d="M103.362 7.26745C103.621 6.20316 104.192 5.24073 105.003 4.5042C105.813 3.76767 106.826 3.29081 107.91 3.13507C108.994 2.97932 110.1 3.15184 111.085 3.63038C112.071 4.10893 112.89 4.87156 113.438 5.82C113.986 6.76844 114.237 7.85921 114.159 8.95172C114.081 10.0442 113.678 11.0884 113.001 11.9497C112.325 12.8109 111.406 13.4498 110.363 13.784C109.32 14.1181 108.2 14.1322 107.149 13.8244C106.46 13.6596 105.812 13.356 105.244 12.9324C104.676 12.5087 104.2 11.9737 103.846 11.3602C103.491 10.7466 103.266 10.0673 103.183 9.36362C103.099 8.65997 103.16 7.94674 103.362 7.26745ZM112.043 9.81111C112.241 9.1338 112.233 8.41299 112.022 7.73978C111.81 7.06656 111.404 6.47115 110.854 6.02878C110.305 5.58641 109.636 5.31694 108.933 5.25441C108.23 5.19189 107.525 5.33912 106.905 5.6775C106.286 6.01588 105.781 6.53022 105.454 7.15553C105.127 7.78085 104.993 8.48906 105.068 9.19069C105.143 9.89231 105.425 10.5559 105.877 11.0975C106.33 11.6391 106.932 12.0345 107.609 12.2336C108.058 12.3828 108.533 12.4386 109.004 12.3975C109.475 12.3564 109.932 12.2193 110.349 11.9946C110.765 11.7699 111.13 11.4624 111.423 11.0911C111.716 10.7197 111.929 10.2924 112.051 9.83533L112.043 9.81111Z" fill="white"/>
<path id="Vector_23" d="M123.315 17.2243C122.58 18.8393 120.893 19.1543 118.543 18.0318L113.956 15.9L118.244 6.68628L122.564 8.68891C124.777 9.72252 125.528 11.2083 124.849 12.6699C124.671 13.093 124.375 13.4565 123.998 13.7182C123.62 13.9798 123.176 14.1288 122.718 14.1477C123.152 14.5159 123.449 15.0215 123.557 15.5809C123.666 16.1403 123.581 16.7201 123.315 17.2243ZM121.7 16.2472C122.128 15.3267 121.619 14.6322 120.327 13.9943L117.566 12.7103L116.282 15.3428L119.043 16.6348C120.319 17.2566 121.24 17.1759 121.668 16.2472H121.7ZM119.334 8.88271L118.155 11.4183L120.578 12.5488C121.757 13.0979 122.629 12.9929 123 12.1451C123.372 11.2972 122.928 10.53 121.74 10.0052L119.334 8.88271Z" fill="white"/>
<path id="Vector_24" d="M128.774 19.1298C129.004 18.7861 129.361 18.5479 129.767 18.4676C130.173 18.3874 130.594 18.4716 130.938 18.7019C131.281 18.9321 131.52 19.2894 131.6 19.6953C131.68 20.1011 131.596 20.5222 131.366 20.866C131.252 21.0362 131.105 21.1823 130.935 21.2959C130.764 21.4095 130.573 21.4884 130.372 21.5282C130.171 21.5679 129.965 21.5677 129.764 21.5275C129.563 21.4873 129.372 21.408 129.202 21.294C129.031 21.18 128.885 21.0336 128.772 20.8631C128.658 20.6927 128.579 20.5015 128.539 20.3005C128.5 20.0996 128.5 19.8928 128.54 19.6919C128.58 19.491 128.66 19.3 128.774 19.1298Z" fill="white"/>
<path id="Vector_25" d="M133.909 26.3653L135.371 25.7112C135.612 26.8951 136.226 27.9705 137.123 28.7798C138.302 29.8376 139.174 29.8618 139.675 29.2966C141.144 27.6816 135.686 24.7018 138.205 21.8917C139.303 20.6724 141.209 20.5109 143.284 22.3681C144.182 23.1488 144.845 24.1637 145.198 25.2994L143.777 25.9939C143.481 25.0509 142.947 24.2 142.227 23.5229C141.056 22.4812 140.175 22.5054 139.659 23.0787C138.213 24.6938 143.64 27.6654 141.153 30.4432C140.062 31.6545 138.149 31.8079 136.073 29.9507C134.978 29.0258 134.217 27.7658 133.909 26.3653Z" fill="white"/>
<path id="Vector_26" d="M146.435 37.1455L143.108 33.3018L140.685 34.1093L139.409 32.6315L150.093 29.45L151.304 30.855L146.612 40.9731L145.32 39.4792L146.435 37.1455ZM147.145 35.7082L149.253 31.3557L144.65 32.8173L147.145 35.7082Z" fill="white"/>
<path id="Vector_27" d="M150.706 47.3768L152.079 44.0175C151.998 43.9126 151.926 43.8076 151.853 43.6945L150.609 41.7646L148.122 43.3796L147.097 41.7646L155.632 36.2493L157.901 39.7619C159.355 41.9988 159.104 44.1306 157.215 45.358C156.649 45.765 155.966 45.9779 155.269 45.9648C154.572 45.9517 153.897 45.7133 153.347 45.2853L151.813 49.0564L150.706 47.3768ZM156.512 40.5775L155.317 38.7203L151.909 40.9248L153.113 42.774C154.009 44.171 155.107 44.4778 156.181 43.7834C157.255 43.0889 157.409 41.9907 156.512 40.5775Z" fill="white"/>
<path id="Vector_28" d="M157.465 55.5005L155.317 50.8977L152.766 50.9785L151.958 49.21L163.102 49.0728L163.909 50.7605L156.642 59.207L155.834 57.4144L157.465 55.5005ZM158.539 54.3135L161.769 50.7039L156.924 50.8493L158.539 54.3135Z" fill="white"/>
<path id="Vector_29" d="M169.182 65.885L159.435 68.784L158.902 66.9752L163.117 65.7316L161.615 60.6927L157.44 61.9282L156.899 60.1194L166.646 57.2285L167.187 59.0373L163.15 60.2325L164.643 65.2713L168.681 64.0762L169.182 65.885Z" fill="white"/>
<path id="Vector_30" d="M161.656 73.2976L163.061 74.2182C162.742 74.4696 162.491 74.7957 162.329 75.1676C162.167 75.5395 162.099 75.9457 162.132 76.35C162.253 77.3917 162.939 77.852 164.175 77.7147L169.4 77.1252L168.988 73.5318L170.603 73.3541L171.225 78.821L164.53 79.58C162.148 79.8465 160.84 78.7725 160.59 76.5761C160.497 75.9843 160.546 75.3791 160.731 74.8095C160.916 74.2399 161.233 73.7219 161.656 73.2976Z" fill="white"/>
<path id="Vector_31" d="M163.618 88.7052V83.6259L161.268 82.6165V80.6704L171.419 85.2732V87.1305L161.244 91.6929V89.7146L163.618 88.7052ZM165.104 88.0834L169.553 86.1857L165.112 84.2719L165.104 88.0834Z" fill="white"/>
<path id="Vector_32" d="M166.234 92.4924C166.936 92.5821 167.613 92.8149 168.221 93.1764C168.83 93.5379 169.358 94.0204 169.773 94.5941C170.188 95.1678 170.48 95.8205 170.633 96.5118C170.785 97.2031 170.794 97.9184 170.659 98.6133C170.585 99.3639 170.346 100.089 169.959 100.737C169.573 101.384 169.048 101.939 168.423 102.36L167.454 100.995C167.88 100.711 168.24 100.338 168.509 99.9019C168.778 99.4657 168.949 98.9766 169.012 98.4679C169.095 97.9947 169.082 97.5097 168.973 97.0417C168.865 96.5737 168.663 96.1323 168.38 95.744C168.097 95.3556 167.739 95.0282 167.327 94.7813C166.915 94.5344 166.457 94.373 165.982 94.3068C165.506 94.2406 165.021 94.271 164.557 94.396C164.094 94.5211 163.66 94.7383 163.282 95.0347C162.903 95.3311 162.589 95.7006 162.357 96.1212C162.125 96.5418 161.98 97.0049 161.93 97.4828C161.848 97.9893 161.878 98.5076 162.018 99.0014C162.157 99.4952 162.403 99.9525 162.738 100.341L161.413 101.391C160.752 100.547 160.352 99.5278 160.262 98.4592C160.171 97.3906 160.395 96.3189 160.905 95.3756C161.416 94.4323 162.19 93.6586 163.134 93.1493C164.078 92.6399 165.15 92.4172 166.218 92.5085L166.234 92.4924Z" fill="white"/>
<path id="Vector_33" d="M164.733 103.111C165.798 103.366 166.763 103.933 167.503 104.741C168.243 105.549 168.724 106.56 168.884 107.643C169.044 108.727 168.876 109.834 168.401 110.821C167.926 111.808 167.167 112.63 166.22 113.182C165.274 113.733 164.184 113.989 163.091 113.915C161.998 113.841 160.952 113.442 160.088 112.769C159.224 112.095 158.582 111.178 158.244 110.136C157.906 109.094 157.888 107.975 158.192 106.923C158.353 106.233 158.654 105.583 159.075 105.013C159.496 104.443 160.029 103.965 160.641 103.608C161.254 103.251 161.932 103.023 162.636 102.938C163.339 102.852 164.053 102.912 164.733 103.111ZM162.221 111.8C162.899 111.999 163.621 111.993 164.295 111.781C164.969 111.57 165.566 111.163 166.008 110.613C166.451 110.062 166.721 109.393 166.783 108.689C166.845 107.985 166.696 107.279 166.357 106.659C166.017 106.04 165.501 105.535 164.874 105.209C164.247 104.883 163.538 104.751 162.836 104.828C162.134 104.906 161.47 105.19 160.929 105.645C160.389 106.099 159.995 106.704 159.799 107.383C159.652 107.83 159.599 108.303 159.641 108.771C159.684 109.24 159.821 109.695 160.046 110.109C160.27 110.522 160.577 110.886 160.947 111.176C161.317 111.467 161.742 111.68 162.197 111.8H162.221Z" fill="white"/>
<path id="Vector_34" d="M154.848 123.073C153.233 122.346 152.918 120.651 154.041 118.309L156.156 113.722L165.386 117.97L163.392 122.298C162.374 124.511 160.888 125.27 159.427 124.591C159.004 124.414 158.639 124.121 158.376 123.745C158.113 123.369 157.962 122.926 157.941 122.468C157.575 122.91 157.067 123.212 156.503 123.323C155.939 123.433 155.354 123.345 154.848 123.073ZM155.817 121.458C156.738 121.886 157.473 121.377 158.07 120.077L159.346 117.316L156.681 116.088L155.405 118.858C154.808 120.118 154.897 120.998 155.85 121.426L155.817 121.458ZM163.222 119.1L160.695 117.897L159.58 120.32C159.031 121.507 159.144 122.371 159.992 122.742C160.84 123.114 161.607 122.653 162.124 121.466L163.222 119.1Z" fill="white"/>
<path id="Vector_35" d="M152.967 128.54C153.14 128.65 153.289 128.794 153.405 128.963C153.522 129.132 153.603 129.323 153.644 129.524C153.686 129.725 153.686 129.932 153.646 130.134C153.606 130.335 153.526 130.526 153.411 130.696C153.242 130.973 152.994 131.193 152.699 131.327C152.403 131.461 152.075 131.503 151.755 131.448C151.435 131.392 151.14 131.242 150.907 131.016C150.674 130.791 150.515 130.5 150.449 130.182C150.384 129.865 150.416 129.535 150.54 129.235C150.665 128.936 150.877 128.681 151.149 128.504C151.42 128.327 151.739 128.235 152.063 128.242C152.387 128.248 152.702 128.352 152.967 128.54Z" fill="white"/>
<path id="Vector_36" d="M145.739 133.716L146.393 135.178C145.209 135.421 144.133 136.038 143.325 136.938C142.275 138.117 142.251 138.997 142.816 139.498C144.431 140.959 147.403 135.46 150.221 138.004C151.448 139.094 151.618 141 149.761 143.083C148.98 143.978 147.969 144.643 146.838 145.005L146.135 143.584C147.064 143.282 147.898 142.745 148.558 142.025C149.599 140.854 149.575 139.974 148.994 139.457C147.379 138.02 144.423 143.455 141.637 140.976C140.426 139.894 140.264 137.98 142.114 135.896C143.047 134.788 144.322 134.021 145.739 133.716Z" fill="white"/>
<path id="Vector_37" d="M134.976 146.281L138.812 142.929L138.004 140.507L139.474 139.231L142.704 149.906L141.315 151.126L131.181 146.466L132.666 145.166L134.976 146.281ZM136.413 146.983L140.782 149.083L139.296 144.48L136.413 146.983Z" fill="white"/>
<path id="Vector_38" d="M124.769 150.585L128.136 151.95C128.239 151.867 128.347 151.792 128.459 151.724L130.381 150.472L128.766 147.985L130.381 146.959L135.929 155.47L132.432 157.756C130.187 159.217 128.056 158.975 126.828 157.085C126.42 156.52 126.206 155.838 126.217 155.141C126.229 154.444 126.466 153.769 126.893 153.217L123.105 151.699L124.769 150.585ZM131.592 156.367L133.442 155.164L131.229 151.772L129.38 152.975C127.991 153.88 127.684 154.978 128.387 156.052C129.089 157.126 130.203 157.271 131.625 156.367H131.592Z" fill="white"/>
<path id="Vector_39" d="M116.685 157.36L121.288 155.203L121.199 152.652L122.959 151.844L123.137 162.996L121.449 163.803L112.979 156.536L114.763 155.728L116.685 157.36ZM117.88 158.442L121.506 161.672L121.336 156.827L117.88 158.442Z" fill="white"/>
<path id="Vector_40" d="M106.349 169.109L103.418 159.378L105.227 158.837L106.478 163.004L111.517 161.502L110.258 157.335L112.066 156.794L114.998 166.525L113.189 167.066L111.978 163.028L106.947 164.538L108.158 168.576L106.349 169.109Z" fill="white"/>
<path id="Vector_41" d="M98.8801 161.615L97.9596 163.021C97.7056 162.703 97.3776 162.454 97.0045 162.293C96.6313 162.133 96.2245 162.066 95.8197 162.1C94.7861 162.229 94.3177 162.907 94.4631 164.151L95.0767 169.368L98.6702 168.948L98.8478 170.522L93.381 171.16L92.5735 164.466C92.2908 162.084 93.3406 160.784 95.5613 160.525C96.1613 160.431 96.7752 160.48 97.3523 160.67C97.9294 160.859 98.4531 161.183 98.8801 161.615Z" fill="white"/>
<path id="Vector_42" d="M83.481 163.634H88.5683L89.5696 161.284H91.5157L86.9452 171.451H85.0798L80.4932 161.284H82.4635L83.481 163.634ZM84.1108 165.112L86.0246 169.553L87.9304 165.112H84.1108Z" fill="white"/>
<path id="Vector_43" d="M79.7259 166.25C79.5271 167.306 79.0237 168.281 78.2778 169.054C77.5319 169.828 76.5761 170.366 75.5281 170.603C74.48 170.84 73.3856 170.765 72.3796 170.388C71.3735 170.01 70.4999 169.347 69.8662 168.479L71.2309 167.502C71.5181 167.927 71.8931 168.285 72.3305 168.552C72.7679 168.82 73.2576 168.99 73.7665 169.052C74.7056 169.179 75.6565 168.927 76.4099 168.352C77.1633 167.777 77.6575 166.927 77.7839 165.988C77.9102 165.049 77.6583 164.098 77.0836 163.344C76.5089 162.591 75.6585 162.097 74.7194 161.97C74.2141 161.889 73.6971 161.919 73.2046 162.058C72.7121 162.198 72.2562 162.443 71.8688 162.778L70.811 161.502C71.6517 160.84 72.6672 160.438 73.733 160.345C74.7989 160.252 75.8688 160.471 76.8116 160.977C77.7545 161.483 78.5294 162.253 79.0413 163.192C79.5532 164.132 79.7799 165.2 79.6936 166.266L79.7259 166.25Z" fill="white"/>
<path id="Vector_44" d="M69.0826 164.732C68.8307 165.798 68.2652 166.764 67.4592 167.506C66.6532 168.248 65.6435 168.731 64.5603 168.893C63.4771 169.056 62.3701 168.89 61.3819 168.418C60.3937 167.945 59.5696 167.188 59.0159 166.243C58.4622 165.298 58.2042 164.209 58.2752 163.116C58.3462 162.023 58.743 160.976 59.4143 160.11C60.0856 159.245 61.0008 158.6 62.0418 158.26C63.0828 157.919 64.202 157.898 65.255 158.2C65.9462 158.358 66.5977 158.656 67.1694 159.076C67.7412 159.495 68.221 160.028 68.5795 160.639C68.938 161.251 69.1676 161.93 69.2541 162.634C69.3406 163.338 69.2823 164.052 69.0826 164.732ZM60.3857 162.31C60.1845 162.989 60.1896 163.714 60.4005 164.39C60.6114 165.067 61.0186 165.666 61.5704 166.111C62.1222 166.555 62.7937 166.826 63.4997 166.889C64.2058 166.952 64.9145 166.803 65.536 166.462C66.1574 166.121 66.6636 165.604 66.9903 164.975C67.317 164.346 67.4495 163.634 67.371 162.929C67.2924 162.225 67.0064 161.56 66.5492 161.018C66.0919 160.476 65.4841 160.083 64.8028 159.887C64.354 159.742 63.8803 159.69 63.4107 159.735C62.9411 159.78 62.4856 159.92 62.0721 160.146C61.6585 160.373 61.2956 160.682 61.0057 161.054C60.7157 161.426 60.5047 161.853 60.3857 162.31Z" fill="white"/>
<path id="Vector_45" d="M49.0722 154.961C49.799 153.346 51.4948 153.023 53.8446 154.105L58.4394 156.205L54.2161 165.459L49.8797 163.472C47.6591 162.463 46.9 160.985 47.5703 159.516C47.7454 159.092 48.0372 158.727 48.4117 158.462C48.7862 158.198 49.2281 158.045 49.6859 158.022C49.2534 157.656 48.9573 157.154 48.8459 156.598C48.7344 156.043 48.8142 155.466 49.0722 154.961ZM53.1098 163.327L54.2807 160.775L51.8582 159.661C50.6711 159.12 49.8071 159.233 49.4356 160.081C49.0642 160.929 49.5244 161.696 50.7115 162.213L53.1098 163.327ZM50.6873 155.922C50.2593 156.851 50.7761 157.578 52.0762 158.175L54.8459 159.435L56.0653 156.77L53.2955 155.502C52.0358 154.913 51.1475 155.042 50.7276 155.922H50.6873Z" fill="white"/>
<path id="Vector_46" d="M43.6053 153.096C43.4964 153.271 43.3533 153.421 43.1846 153.539C43.0159 153.657 42.8252 153.74 42.6237 153.782C42.4223 153.824 42.2145 153.825 42.0126 153.785C41.8108 153.745 41.6192 153.664 41.4493 153.548C41.1855 153.38 40.9779 153.137 40.8529 152.85C40.7279 152.563 40.6911 152.246 40.7473 151.938C40.8035 151.63 40.9501 151.346 41.1684 151.122C41.3867 150.898 41.6669 150.744 41.9731 150.68C42.2793 150.616 42.5977 150.644 42.8877 150.761C43.1776 150.879 43.426 151.08 43.6012 151.339C43.7763 151.599 43.8702 151.904 43.871 152.217C43.8717 152.53 43.7792 152.836 43.6053 153.096Z" fill="white"/>
</g>
</g>
</g>
</g>
<defs>
<filter id="filter0_f" x="-1000.9" y="-489.901" width="1713.81" height="1310.82" filterUnits="userSpaceOnUse" color-interpolation-filters="sRGB">
<feFlood flood-opacity="0" result="BackgroundImageFix"/>
<feBlend mode="normal" in="SourceGraphic" in2="BackgroundImageFix" result="shape"/>
<feGaussianBlur stdDeviation="128.451" result="effect1_foregroundBlur"/>
</filter>
<linearGradient id="paint0_linear" x1="-424.478" y1="-224.007" x2="-416.983" y2="652.853" gradientUnits="userSpaceOnUse">
<stop stop-color="#DDDDDD"/>
<stop offset="0.453125" stop-color="#A2A2A2"/>
<stop offset="1" stop-color="#3F3F3F"/>
</linearGradient>
<clipPath id="clip0">
<rect width="1920" height="3877" fill="white" transform="translate(-388 -3522)"/>
</clipPath>
</defs>
</svg>
